<svg xmlns="http://www.w3.org/2000/svg" width="40" height="40" viewBox="0 0 40 40" role="img" aria-label="NB">
  <rect width="40" height="40" rx="10" ry="10" fill="#2d6a4f"/>
  <path d="M12.27 25.60L10.19 25.60L10.19 14.40L14.21 14.40L16.43 24.16L16.72 24.16L16.72 14.40L18.80 14.40L18.80 25.60L14.78 25.60L12.56 15.84L12.27 15.84L12.27 25.60M26.42 25.60L20.59 25.60L20.59 23.74L22.06 23.74L22.06 16.26L20.59 16.26L20.59 14.40L26.35 14.40Q27.38 14.40 28.14 14.74Q28.90 15.09 29.32 15.72Q29.74 16.35 29.74 17.23L29.74 17.39Q29.74 18.16 29.46 18.65Q29.17 19.14 28.78 19.40Q28.38 19.66 28.03 19.78L28.03 20.06Q28.38 20.16 28.80 20.42Q29.22 20.69 29.51 21.18Q29.81 21.68 29.81 22.48L29.81 22.64Q29.81 23.57 29.38 24.23Q28.94 24.90 28.18 25.25Q27.42 25.60 26.42 25.60M24.18 20.93L24.18 23.68L26.16 23.68Q26.85 23.68 27.27 23.34Q27.70 23.01 27.70 22.38L27.70 22.22Q27.70 21.60 27.28 21.26Q26.86 20.93 26.16 20.93L24.18 20.93M24.18 16.32L24.18 19.01L26.13 19.01Q26.78 19.01 27.21 18.67Q27.63 18.34 27.63 17.74L27.63 17.58Q27.63 16.98 27.22 16.65Q26.80 16.32 26.13 16.32" fill="#fff"/>
</svg>
